<svg xmlns="http://www.w3.org/2000/svg" width="616" height="81" fill="none">
  <g filter="url(#a)">
    <path fill="#fff" fill-opacity=".8" d="M603.529 72.096c-2.56 0-4.608-.736-6.144-2.208-1.536-1.536-2.304-3.584-2.304-6.144 0-2.624.768-4.704 2.304-6.24 1.536-1.6 3.584-2.4 6.144-2.4 2.624 0 4.672.8 6.144 2.4 1.536 1.536 2.304 3.616 2.304 6.24 0 2.56-.768 4.608-2.304 6.144-1.472 1.472-3.52 2.208-6.144 2.208Z" shape-rendering="crispEdges"/>
  </g>
  <g filter="url(#b)">
    <path fill="#fff" fill-opacity=".8" d="M545.966 72.096c-4.288 0-8.064-.832-11.328-2.496-3.2-1.728-5.663-4.128-7.391-7.2-1.728-3.072-2.593-6.656-2.593-10.752V37.824c0-4.16.865-7.744 2.593-10.752 1.728-3.072 4.191-5.44 7.391-7.104 3.264-1.728 7.04-2.592 11.328-2.592 4.352 0 8.128.864 11.328 2.592 3.2 1.664 5.665 4.032 7.393 7.104 1.728 3.008 2.592 6.592 2.592 10.752v9.408h-32.641v4.416c0 3.904.96 6.88 2.88 8.928 1.984 2.048 4.832 3.072 8.544 3.072 3.008 0 5.441-.512 7.297-1.536 1.856-1.088 3.008-2.656 3.456-4.704h10.271c-.768 4.48-3.072 8.064-6.912 10.752-3.84 2.624-8.576 3.936-14.208 3.936Zm11.328-31.104v-3.264c0-3.84-.96-6.816-2.88-8.928-1.92-2.112-4.736-3.168-8.448-3.168-3.648 0-6.464 1.056-8.448 3.168-1.92 2.112-2.88 5.12-2.88 9.024v2.4l23.424-.096-.768.864Z" shape-rendering="crispEdges"/>
  </g>
  <g filter="url(#c)">
    <path fill="#fff" fill-opacity=".8" d="M469.396 71.136v-52.8h9.984v10.08h2.496l-3.168 6.24c0-5.696 1.248-9.984 3.744-12.864 2.496-2.944 6.208-4.416 11.136-4.416 5.632 0 10.08 1.76 13.344 5.28 3.328 3.456 4.992 8.224 4.992 14.304v3.552h-10.656v-2.688c0-3.776-.96-6.656-2.88-8.64-1.856-2.048-4.48-3.072-7.872-3.072-3.392 0-6.048 1.024-7.968 3.072-1.856 2.048-2.784 4.928-2.784 8.64v33.312h-10.368Z" shape-rendering="crispEdges"/>
  </g>
  <g filter="url(#d)">
    <path fill="#fff" fill-opacity=".8" d="M430.841 72c-4.352 0-8.127-.832-11.327-2.496-3.2-1.664-5.665-4.032-7.393-7.104-1.728-3.072-2.591-6.688-2.591-10.848V37.92c0-4.224.863-7.84 2.591-10.848 1.728-3.072 4.193-5.44 7.393-7.104 3.2-1.664 6.975-2.496 11.327-2.496s8.128.832 11.328 2.496c3.2 1.664 5.664 4.032 7.392 7.104 1.728 3.008 2.593 6.624 2.593 10.848v13.632c0 4.16-.865 7.776-2.593 10.848-1.728 3.072-4.192 5.44-7.392 7.104-3.2 1.664-6.976 2.496-11.328 2.496Zm0-9.12c3.52 0 6.24-.96 8.16-2.88 1.92-1.984 2.881-4.8 2.881-8.448V37.92c0-3.712-.961-6.528-2.881-8.448-1.92-1.92-4.64-2.88-8.16-2.88-3.456 0-6.175.96-8.159 2.88-1.92 1.92-2.88 4.736-2.88 8.448v13.632c0 3.648.96 6.464 2.88 8.448 1.984 1.92 4.703 2.88 8.159 2.88Z" shape-rendering="crispEdges"/>
  </g>
  <g filter="url(#e)">
    <path fill="#fff" fill-opacity=".8" d="M379.039 71.136c-4.8 0-8.544-1.312-11.232-3.936-2.688-2.624-4.032-6.272-4.032-10.944V27.744h-14.592v-9.408h14.592V3.456h10.368v14.88h20.64v9.408h-20.64v28.512c0 3.648 1.76 5.472 5.28 5.472h14.4v9.408h-14.784Z" shape-rendering="crispEdges"/>
  </g>
  <g filter="url(#f)">
    <path fill="#fff" fill-opacity=".8" d="M316.005 72.096c-4.736 0-8.8-.768-12.193-2.304-3.392-1.6-6.016-3.84-7.872-6.72-1.856-2.944-2.784-6.432-2.784-10.464h10.272c0 3.2 1.121 5.728 3.361 7.584 2.24 1.792 5.343 2.688 9.311 2.688 3.712 0 6.625-.896 8.737-2.688 2.112-1.792 3.168-4.256 3.168-7.392 0-2.624-.736-4.896-2.208-6.816-1.408-1.92-3.457-3.232-6.145-3.936l-8.832-2.592c-5.12-1.472-9.087-3.968-11.903-7.488-2.752-3.584-4.128-7.84-4.128-12.768 0-3.84.863-7.2 2.591-10.08 1.728-2.88 4.192-5.12 7.392-6.72C307.972.8 311.748 0 316.1 0c6.4 0 11.521 1.728 15.361 5.184 3.904 3.456 5.888 8.096 5.952 13.92h-10.369c0-3.072-.991-5.472-2.975-7.2-1.92-1.792-4.64-2.688-8.16-2.688-3.392 0-6.049.832-7.969 2.496-1.92 1.6-2.879 3.872-2.879 6.816 0 2.624.704 4.896 2.112 6.816 1.472 1.92 3.552 3.264 6.24 4.032l8.928 2.688c5.12 1.408 9.055 3.904 11.807 7.488 2.752 3.584 4.129 7.872 4.129 12.864 0 3.904-.929 7.36-2.785 10.368-1.856 2.944-4.448 5.248-7.776 6.912-3.328 1.6-7.231 2.4-11.711 2.4Z" shape-rendering="crispEdges"/>
  </g>
  <g filter="url(#g)">
    <path fill="#fff" fill-opacity=".8" d="M179.855 71.136V1.056h10.369v17.28l-.096 10.08h2.496l-2.496 2.4c0-4.224 1.248-7.52 3.744-9.888 2.496-2.368 5.952-3.552 10.368-3.552 5.248 0 9.44 1.696 12.576 5.088 3.136 3.328 4.704 7.84 4.704 13.536v35.136h-10.368V37.152c0-3.456-.928-6.144-2.784-8.064-1.856-1.92-4.384-2.88-7.584-2.88-3.264 0-5.856 1.024-7.776 3.072-1.856 1.984-2.784 4.832-2.784 8.544v33.312h-10.369Z" shape-rendering="crispEdges"/>
  </g>
  <g filter="url(#h)">
    <path fill="#fff" fill-opacity=".8" d="M143.413 72.096c-4.352 0-8.192-.8-11.52-2.4-3.264-1.664-5.792-4.032-7.584-7.104-1.728-3.136-2.592-6.784-2.592-10.944V37.824c0-4.224.864-7.872 2.592-10.944 1.792-3.072 4.32-5.408 7.584-7.008 3.328-1.664 7.168-2.496 11.52-2.496 6.336 0 11.424 1.664 15.264 4.992 3.84 3.328 5.856 7.872 6.048 13.632h-10.368c-.192-3.008-1.248-5.344-3.168-7.008-1.92-1.664-4.512-2.496-7.776-2.496-3.52 0-6.304.992-8.352 2.976-2.048 1.92-3.072 4.672-3.072 8.256v13.92c0 3.584 1.024 6.368 3.072 8.352s4.832 2.976 8.352 2.976c3.264 0 5.856-.832 7.776-2.496 1.92-1.664 2.976-4 3.168-7.008h10.368c-.192 5.76-2.208 10.304-6.048 13.632-3.84 3.328-8.928 4.992-15.264 4.992Z" shape-rendering="crispEdges"/>
  </g>
  <g filter="url(#i)">
    <path fill="#fff" fill-opacity=".8" d="M85.466 72.096c-4.287 0-8.063-.832-11.328-2.496-3.2-1.728-5.663-4.128-7.392-7.2-1.727-3.072-2.591-6.656-2.591-10.752V37.824c0-4.16.864-7.744 2.591-10.752 1.729-3.072 4.193-5.44 7.392-7.104 3.264-1.728 7.04-2.592 11.328-2.592 4.353 0 8.129.864 11.329 2.592 3.2 1.664 5.664 4.032 7.392 7.104 1.728 3.008 2.592 6.592 2.592 10.752v9.408h-32.64v4.416c0 3.904.96 6.88 2.88 8.928 1.983 2.048 4.831 3.072 8.543 3.072 3.008 0 5.44-.512 7.297-1.536 1.856-1.088 3.008-2.656 3.456-4.704h10.272c-.768 4.48-3.072 8.064-6.913 10.752-3.84 2.624-8.576 3.936-14.208 3.936Zm11.329-31.104v-3.264c0-3.84-.96-6.816-2.88-8.928-1.92-2.112-4.737-3.168-8.449-3.168-3.647 0-6.463 1.056-8.447 3.168-1.92 2.112-2.88 5.12-2.88 9.024v2.4l23.424-.096-.769.864Z" shape-rendering="crispEdges"/>
  </g>
  <g filter="url(#j)">
    <path fill="#fff" fill-opacity=".8" d="M22.72 71.136V10.56H4V.96h47.808v9.6h-18.72v60.576H22.72Z" shape-rendering="crispEdges"/>
  </g>
  <defs>
    <filter id="a" width="24.896" height="24.992" x="591.081" y="55.104" color-interpolation-filters="sRGB" filterUnits="userSpaceOnUse">
      <feFlood flood-opacity="0" result="BackgroundImageFix"/>
      <feColorMatrix in="SourceAlpha" result="hardAlpha" values="0 0 0 0 0 0 0 0 0 0 0 0 0 0 0 0 0 0 127 0"/>
      <feOffset dy="4"/>
      <feGaussianBlur stdDeviation="2"/>
      <feComposite in2="hardAlpha" operator="out"/>
      <feColorMatrix values="0 0 0 0 0 0 0 0 0 0 0 0 0 0 0 0 0 0 0.25 0"/>
      <feBlend in2="BackgroundImageFix" result="effect1_dropShadow_1_23"/>
      <feBlend in="SourceGraphic" in2="effect1_dropShadow_1_23" result="shape"/>
    </filter>
    <filter id="b" width="50.624" height="62.72" x="520.654" y="17.376" color-interpolation-filters="sRGB" filterUnits="userSpaceOnUse">
      <feFlood flood-opacity="0" result="BackgroundImageFix"/>
      <feColorMatrix in="SourceAlpha" result="hardAlpha" values="0 0 0 0 0 0 0 0 0 0 0 0 0 0 0 0 0 0 127 0"/>
      <feOffset dy="4"/>
      <feGaussianBlur stdDeviation="2"/>
      <feComposite in2="hardAlpha" operator="out"/>
      <feColorMatrix values="0 0 0 0 0 0 0 0 0 0 0 0 0 0 0 0 0 0 0.25 0"/>
      <feBlend in2="BackgroundImageFix" result="effect1_dropShadow_1_23"/>
      <feBlend in="SourceGraphic" in2="effect1_dropShadow_1_23" result="shape"/>
    </filter>
    <filter id="c" width="50.528" height="61.76" x="465.396" y="17.376" color-interpolation-filters="sRGB" filterUnits="userSpaceOnUse">
      <feFlood flood-opacity="0" result="BackgroundImageFix"/>
      <feColorMatrix in="SourceAlpha" result="hardAlpha" values="0 0 0 0 0 0 0 0 0 0 0 0 0 0 0 0 0 0 127 0"/>
      <feOffset dy="4"/>
      <feGaussianBlur stdDeviation="2"/>
      <feComposite in2="hardAlpha" operator="out"/>
      <feColorMatrix values="0 0 0 0 0 0 0 0 0 0 0 0 0 0 0 0 0 0 0.25 0"/>
      <feBlend in2="BackgroundImageFix" result="effect1_dropShadow_1_23"/>
      <feBlend in="SourceGraphic" in2="effect1_dropShadow_1_23" result="shape"/>
    </filter>
    <filter id="d" width="50.624" height="62.528" x="405.53" y="17.472" color-interpolation-filters="sRGB" filterUnits="userSpaceOnUse">
      <feFlood flood-opacity="0" result="BackgroundImageFix"/>
      <feColorMatrix in="SourceAlpha" result="hardAlpha" values="0 0 0 0 0 0 0 0 0 0 0 0 0 0 0 0 0 0 127 0"/>
      <feOffset dy="4"/>
      <feGaussianBlur stdDeviation="2"/>
      <feComposite in2="hardAlpha" operator="out"/>
      <feColorMatrix values="0 0 0 0 0 0 0 0 0 0 0 0 0 0 0 0 0 0 0.25 0"/>
      <feBlend in2="BackgroundImageFix" result="effect1_dropShadow_1_23"/>
      <feBlend in="SourceGraphic" in2="effect1_dropShadow_1_23" result="shape"/>
    </filter>
    <filter id="e" width="53.6" height="75.68" x="345.183" y="3.456" color-interpolation-filters="sRGB" filterUnits="userSpaceOnUse">
      <feFlood flood-opacity="0" result="BackgroundImageFix"/>
      <feColorMatrix in="SourceAlpha" result="hardAlpha" values="0 0 0 0 0 0 0 0 0 0 0 0 0 0 0 0 0 0 127 0"/>
      <feOffset dy="4"/>
      <feGaussianBlur stdDeviation="2"/>
      <feComposite in2="hardAlpha" operator="out"/>
      <feColorMatrix values="0 0 0 0 0 0 0 0 0 0 0 0 0 0 0 0 0 0 0.25 0"/>
      <feBlend in2="BackgroundImageFix" result="effect1_dropShadow_1_23"/>
      <feBlend in="SourceGraphic" in2="effect1_dropShadow_1_23" result="shape"/>
    </filter>
    <filter id="f" width="53.12" height="80.096" x="289.156" y="0" color-interpolation-filters="sRGB" filterUnits="userSpaceOnUse">
      <feFlood flood-opacity="0" result="BackgroundImageFix"/>
      <feColorMatrix in="SourceAlpha" result="hardAlpha" values="0 0 0 0 0 0 0 0 0 0 0 0 0 0 0 0 0 0 127 0"/>
      <feOffset dy="4"/>
      <feGaussianBlur stdDeviation="2"/>
      <feComposite in2="hardAlpha" operator="out"/>
      <feColorMatrix values="0 0 0 0 0 0 0 0 0 0 0 0 0 0 0 0 0 0 0.25 0"/>
      <feBlend in2="BackgroundImageFix" result="effect1_dropShadow_1_23"/>
      <feBlend in="SourceGraphic" in2="effect1_dropShadow_1_23" result="shape"/>
    </filter>
    <filter id="g" width="49.664" height="78.08" x="175.855" y="1.056" color-interpolation-filters="sRGB" filterUnits="userSpaceOnUse">
      <feFlood flood-opacity="0" result="BackgroundImageFix"/>
      <feColorMatrix in="SourceAlpha" result="hardAlpha" values="0 0 0 0 0 0 0 0 0 0 0 0 0 0 0 0 0 0 127 0"/>
      <feOffset dy="4"/>
      <feGaussianBlur stdDeviation="2"/>
      <feComposite in2="hardAlpha" operator="out"/>
      <feColorMatrix values="0 0 0 0 0 0 0 0 0 0 0 0 0 0 0 0 0 0 0.25 0"/>
      <feBlend in2="BackgroundImageFix" result="effect1_dropShadow_1_23"/>
      <feBlend in="SourceGraphic" in2="effect1_dropShadow_1_23" result="shape"/>
    </filter>
    <filter id="h" width="51.008" height="62.72" x="117.717" y="17.376" color-interpolation-filters="sRGB" filterUnits="userSpaceOnUse">
      <feFlood flood-opacity="0" result="BackgroundImageFix"/>
      <feColorMatrix in="SourceAlpha" result="hardAlpha" values="0 0 0 0 0 0 0 0 0 0 0 0 0 0 0 0 0 0 127 0"/>
      <feOffset dy="4"/>
      <feGaussianBlur stdDeviation="2"/>
      <feComposite in2="hardAlpha" operator="out"/>
      <feColorMatrix values="0 0 0 0 0 0 0 0 0 0 0 0 0 0 0 0 0 0 0.25 0"/>
      <feBlend in2="BackgroundImageFix" result="effect1_dropShadow_1_23"/>
      <feBlend in="SourceGraphic" in2="effect1_dropShadow_1_23" result="shape"/>
    </filter>
    <filter id="i" width="50.624" height="62.72" x="60.154" y="17.376" color-interpolation-filters="sRGB" filterUnits="userSpaceOnUse">
      <feFlood flood-opacity="0" result="BackgroundImageFix"/>
      <feColorMatrix in="SourceAlpha" result="hardAlpha" values="0 0 0 0 0 0 0 0 0 0 0 0 0 0 0 0 0 0 127 0"/>
      <feOffset dy="4"/>
      <feGaussianBlur stdDeviation="2"/>
      <feComposite in2="hardAlpha" operator="out"/>
      <feColorMatrix values="0 0 0 0 0 0 0 0 0 0 0 0 0 0 0 0 0 0 0.25 0"/>
      <feBlend in2="BackgroundImageFix" result="effect1_dropShadow_1_23"/>
      <feBlend in="SourceGraphic" in2="effect1_dropShadow_1_23" result="shape"/>
    </filter>
    <filter id="j" width="55.808" height="78.176" x="0" y=".96" color-interpolation-filters="sRGB" filterUnits="userSpaceOnUse">
      <feFlood flood-opacity="0" result="BackgroundImageFix"/>
      <feColorMatrix in="SourceAlpha" result="hardAlpha" values="0 0 0 0 0 0 0 0 0 0 0 0 0 0 0 0 0 0 127 0"/>
      <feOffset dy="4"/>
      <feGaussianBlur stdDeviation="2"/>
      <feComposite in2="hardAlpha" operator="out"/>
      <feColorMatrix values="0 0 0 0 0 0 0 0 0 0 0 0 0 0 0 0 0 0 0.25 0"/>
      <feBlend in2="BackgroundImageFix" result="effect1_dropShadow_1_23"/>
      <feBlend in="SourceGraphic" in2="effect1_dropShadow_1_23" result="shape"/>
    </filter>
  </defs>
</svg>
